inDegrees=yes
name=ik_S56_A06_T02
DataType=double
version=3
OpenSimVersion=4.3-2021-08-27-4bc7ad9
endheader
time	pelvis_tilt	pelvis_list	pelvis_rotation	pelvis_tx	pelvis_ty	pelvis_tz	hip_flexion_r	hip_adduction_r	hip_rotation_r	knee_angle_r	knee_angle_r_beta	ankle_angle_r	subtalar_angle_r	mtp_angle_r	hip_flexion_l	hip_adduction_l	hip_rotation_l	knee_angle_l	knee_angle_l_beta	ankle_angle_l	subtalar_angle_l	mtp_angle_l	lumbar_extension	lumbar_bending	lumbar_rotation	arm_flex_r	arm_add_r	arm_rot_r	elbow_flex_r	pro_sup_r	wrist_flex_r	wrist_dev_r	arm_flex_l	arm_add_l	arm_rot_l	elbow_flex_l	pro_sup_l	wrist_flex_l	wrist_dev_l
12.89999999999981	-9.910986127016022	-0.9592915008449998	26.63732698943015	0	0.9399999999999999	0	35.31267931075345	-11.9950487401184	-10.00241345975064	50.41811450315342	0.8799621007275321	0	0	0	35.31267931075345	-11.9950487401184	-10.00241345975064	50.41811450315342	0.8799621007275321	0	0	0	-7.974401382199363	2.911341161106077	-3.784178648250581	40.86100901559224	-11.32451725780568	15.56937341113428	39.15627061409827	128.6499753796872	0	0	74.59765144810179	20.92058132529728	34.92221174993598	41.85101173766474	109.133545627278	0	0
12.91999999999981	-9.906822266687383	-0.9698472343691764	26.62315687933405	0	0.9399999999999999	0	35.31339572174424	-11.99456470961071	-10.00241307866775	50.41834956976668	0.8799662034138951	0	0	0	35.31339572174424	-11.99456470961071	-10.00241307866775	50.41834956976668	0.8799662034138951	0	0	0	-7.975464001893991	2.901102983542954	-3.791421517755209	40.94487651712326	-11.30806952954325	15.57169149318104	39.14198776497159	128.6352371718314	0	0	74.50046851461522	20.92298021809773	34.82043510664618	41.78702518492655	109.0600088231661	0	0
12.93999999999981	-9.899982855885378	-0.9579798772041461	26.58238102785077	0	0.9399999999999999	0	35.31634211565911	-11.99249938423001	-10.0024114734643	50.41928264383029	0.8799824886284699	0	0	0	35.31634211565911	-11.99249938423001	-10.0024114734643	50.41928264383029	0.8799824886284699	0	0	0	-7.964554304022132	2.911723873681846	-3.808565088321704	40.99641859428829	-11.3082758995592	15.6423254511184	39.02526854977348	128.6083123463252	0	0	74.44438801622456	20.89402492443801	34.69662813383335	41.60222650558141	108.8397565456121	0	0
12.95999999999981	-9.90199711135122	-0.9731074375636586	26.58017896838007	0	0.9399999999999999	0	35.31694634634415	-11.99209513839612	-10.00241115403743	50.41948257076971	0.8799859780118263	0	0	0	35.31694634634415	-11.99209513839612	-10.00241115403743	50.41948257076971	0.8799859780118263	0	0	0	-7.973231771907676	2.900321573631884	-3.817192535571224	41.07025927834618	-11.28850904893864	15.60324755813845	39.02080282194964	128.6070063620126	0	-2.155227684594804e-35	74.34170819730511	20.87769311789361	34.60780988149038	41.56213936624297	108.8044881595305	0	-2.155227684594804e-35
12.97999999999981	-9.899990827732582	-0.9755177017693728	26.58231123617235	0	0.9399999999999999	0	35.31764072612945	-11.99162834283839	-10.0024107858055	50.41971128228308	0.8799899697807719	0	0	0	35.31764072612945	-11.99162834283839	-10.0024107858055	50.41971128228308	0.8799899697807719	0	0	0	-7.972796790271715	2.899598481195385	-3.832075548346088	41.1071007453036	-11.26172165857793	15.57545839939985	38.99753516286732	128.6056886569323	0	-6.464667271996602e-52	74.24687917425284	20.85328063738853	34.50285830211921	41.51011982385824	108.7768022124647	0	-6.464667271996602e-52
12.99999999999981	-9.894439049769517	-0.9783201367639288	26.56430712009283	0	0.9399999999999999	0	35.3182379176586	-11.99245913333286	-10.00241101222816	50.42004990554008	0.8799958798715304	0	0	0	35.3182379176586	-11.99245913333286	-10.00241101222816	50.42004990554008	0.8799958798715304	0	0	0	-7.969288673431387	2.894936000598927	-3.833259399412302	41.10245025384341	-11.22086058794824	15.56983696423504	38.93033683106305	128.621199768988	0	0	74.24446696148131	20.8340482678993	34.50352672640665	41.3852817933689	108.7333433062035	0	0
13.01999999999981	-9.896923341819441	-0.9841668827107318	26.57805371505345	0	0.9399999999999999	0	35.31888553514128	-11.99202351534448	-10.00241066870531	50.42026315802643	0.8799996018295552	0	0	0	35.31888553514128	-11.99202351534448	-10.00241066870531	50.42026315802643	0.8799996018295552	0	0	0	-7.974211311799613	2.891079898099024	-3.834594467532955	41.12289019545099	-11.20407591625393	15.51557072999897	38.93172066610558	128.6027490766135	0	0	74.17525834647395	20.844093578519	34.44113051153219	41.33521368214484	108.7237891403212	0	0
13.03999999999981	-9.890616097850055	-0.9906543494341634	26.61414196072666	0	0.9399999999999999	0	35.32161422010742	-11.99010185883152	-10.00240917746398	50.42112265072894	0.8800146028071109	0	0	0	35.32161422010742	-11.99010185883152	-10.00240917746398	50.42112265072894	0.8800146028071109	0	0	0	-7.971625837103059	2.881696782821014	-3.82776159900724	41.0935974311199	-11.21575995457271	15.47016588092399	38.94179406103155	128.5394308528584	0	0	74.09095147589798	20.89911541827028	34.41938718924857	41.11085874972322	108.7560122561395	0	0
13.05999999999981	-9.900090569675466	-0.9939805883759008	26.61475562559369	0	0.9399999999999999	0	35.32243099156214	-11.98954048904593	-10.00240873805279	50.42138595751708	0.8800191983775068	0	0	0	35.32243099156214	-11.98954048904593	-10.00240873805279	50.42138595751708	0.8800191983775068	0	0	0	-7.98165047097174	2.882621812379765	-3.824429188172733	41.11291398927837	-11.21022757919438	15.46887995786315	38.95649472846429	128.5455158869448	0	0	73.97156741207871	20.94605180871103	34.3921079345735	41.04276877770846	108.7524254053287	0	0
13.07999999999981	-9.89325733703896	-0.9943526683141914	26.63379765735166	0	0.9399999999999999	0	35.32783267494267	-11.98820090820789	-10.00240678885285	50.42328040482415	0.8800522627205206	0	0	0	35.32783267494267	-11.98820090820789	-10.00240678885285	50.42328040482415	0.8800522627205206	0	0	0	-7.976139213087341	2.877308946389282	-3.807860179588328	41.09592561310607	-11.22082652417939	15.47299242299986	38.93778354701902	128.5316466793877	0	0	73.8982348634768	21.05113925480295	34.4686146199497	40.80897248516277	108.6972030430594	0	0
13.09999999999981	-9.886100873556046	-0.9897350007752763	26.63082553388389	0	0.9399999999999999	0	35.33070348030237	-11.98626323498988	-10.00240526268123	50.4242219962545	0.8800686965911887	0	0	0	35.33070348030237	-11.98626323498988	-10.00240526268123	50.4242219962545	0.8800686965911887	0	0	0	-7.96800923529119	2.876341558174171	-3.789211250424502	41.06056318016022	-11.23611051529691	15.52895696081693	38.98201683889025	128.4276367994987	0	0	73.87454486445327	21.16230406625495	34.59474658169152	40.24032163703783	108.2321281751778	0	0
13.11999999999981	-9.890592143254304	-0.9929344914288015	26.57512136013415	0	0.9399999999999999	0	35.33365859686436	-11.98424940155313	-10.00240368170581	50.4251819324843	0.880085450639008	0	0	0	35.33365859686436	-11.98424940155313	-10.00240368170581	50.4251819324843	0.880085450639008	0	0	0	-7.973066443941745	2.867462144531144	-3.731256676053696	41.070322343227	-11.2512320308845	15.59507657765131	39.01032933995902	128.3510597263557	0	0	73.90417134742556	21.26160568890651	34.77974294829879	39.77170799379562	107.7576934925666	0	0
13.13999999999981	-9.898591691120057	-0.9899962631633059	26.52062355026244	0	0.9399999999999999	0	35.33795824187055	-11.98125132846127	-10.00240134651822	50.42654689723382	0.8801092737680608	0	0	0	35.33795824187055	-11.98125132846127	-10.00240134651822	50.42654689723382	0.8801092737680608	0	0	0	-7.978886674404352	2.866970882634037	-3.681446856819824	41.08535998503418	-11.2622917020506	15.67606108380811	39.02397701548355	128.3015304445825	0	0	73.91174811579198	21.37025102989206	34.9764271169155	39.30035896423584	107.2948636408074	0	0
13.15999999999981	-9.899071245138817	-0.990082778607032	26.45063231754882	0	0.9399999999999999	0	35.3414935810595	-11.97878815806093	-10.00239942700353	50.42766884152903	0.8801288553900362	0	0	0	35.3414935810595	-11.97878815806093	-10.00239942700353	50.42766884152903	0.8801288553900362	0	0	0	-7.979105259859216	2.859840190072044	-3.629736090360853	41.11853182615939	-11.24197873790738	15.70601596275402	39.02351522320716	128.2597363811394	0	0	73.90285401003887	21.46343903032272	35.16829753496269	38.8244378543497	106.7100421913358	0	0
13.17999999999981	-9.892735682013241	-0.9781818113053298	26.37503213923654	0	0.9399999999999999	0	35.34419852661039	-11.97690638008315	-10.00239795962118	50.42852804155594	0.8801438512594389	0	0	0	35.34419852661039	-11.97690638008315	-10.00239795962118	50.42852804155594	0.8801438512594389	0	0	0	-7.967971766979236	2.86253691737518	-3.592448268062279	41.12235901361118	-11.21976944846011	15.73559131664061	39.02111111608782	128.2602531469375	0	0	73.90241900793333	21.53806741797035	35.33403609631058	38.33648730230278	106.1550189255631	0	0
13.19999999999981	-9.891371453799648	-0.9644416925498854	26.29759976830768	0	0.9399999999999999	0	35.3475452362025	-11.97456514944045	-10.00239613730425	50.42958469980976	0.8801622934250365	0	0	0	35.3475452362025	-11.97456514944045	-10.00239613730425	50.42958469980976	0.8801622934250365	0	0	0	-7.960815100726546	2.871049740855047	-3.56811384974185	41.146055673509	-11.14077880890969	15.72312050819022	38.99777784552652	128.2954391036298	0	0	73.92978024828037	21.60765801154877	35.41768174813438	37.81666831388357	105.6445232976979	0	0
13.21999999999981	-9.887824991976512	-0.9502151210725593	26.26798865956165	0	0.9399999999999999	0	35.3428109787096	-11.9727456752819	-10.00239660576073	50.42770403812627	0.8801294696865435	-1.55745404985145e-35	0	0	35.3428109787096	-11.9727456752819	-10.00239660576073	50.42770403812627	0.8801294696865435	-1.55745404985145e-35	0	0	-7.950960993708369	2.883302602789352	-3.576530414288199	41.13118891127984	-11.10660049725583	15.75839941054361	38.98826385540676	128.3292205448015	0	0	73.89809784459607	21.59062317560993	35.38508995119677	37.69951048787199	105.5362073655629	0	0
13.23999999999981	-9.869218080514086	-0.9287167922162877	26.17436144886206	0	0.9399999999999999	0	35.34613267328382	-11.97047535580416	-10.0023948226421	50.42877389004084	0.8801481421249616	0	0	0	35.34613267328382	-11.97047535580416	-10.0023948226421	50.42877389004084	0.8801481421249616	0	0	0	-7.924472686703218	2.886729980730584	-3.521328724398963	41.07119099928098	-11.08867990242741	15.77909045049238	39.0357889099105	128.269545734927	0	0	73.9209203915768	21.64652615781356	35.43143560539024	37.11741807168382	104.9939165163021	0	0
13.25999999999981	-9.868097668288856	-0.9142829869762369	26.11299805950171	0	0.9399999999999999	0	35.34725322034735	-11.97251909358071	-10.00239540512752	50.42938701486093	0.8801588431717978	0	0	0	35.34725322034735	-11.97251909358071	-10.00239540512752	50.42938701486093	0.8801588431717978	0	0	0	-7.916666035763749	2.891889126059436	-3.467277407753223	41.07391759794687	-11.11015410641004	15.79426146753279	39.04196760471918	128.2760422800014	0	0	73.92713529186585	21.71912024548303	35.4798300284119	36.72830079464205	104.4665755765991	0	0
13.27999999999981	-9.849066334208104	-0.8868155734987523	26.06725980589117	0	0.9399999999999999	0	35.3502070815983	-11.97046142752325	-10.00239380034934	50.43032191163346	0.8801751601986447	0	0	0	35.3502070815983	-11.97046142752325	-10.00239380034934	50.43032191163346	0.8801751601986447	0	0	0	-7.88759787194634	2.905191006933526	-3.442785227732973	41.00847555095933	-11.1107812450523	15.77503160889394	39.11966126686286	128.126848528669	0	0	73.88657943205787	21.76947478141224	35.48971659651893	36.4694593698594	104.1137023490883	0	0
13.29999999999981	-9.839463873652319	-0.8827606355652861	26.03994234166466	0	0.9399999999999999	0	35.40761927233192	-11.93437564227576	-10.00236412270464	50.44860411052895	0.8804942447638756	0	0	0	35.40761927233192	-11.93437564227576	-10.00236412270464	50.44860411052895	0.8804942447638756	0	0	0	-7.88282284765793	2.907820864747935	-3.428149100787578	40.98295697695378	-11.08351337292418	15.7001431636231	39.18844695573468	128.0304810472223	0	0	73.87110684687028	21.74738411190195	35.42197118979828	36.39535265979647	104.071884744322	0	0
13.3199999999998	-9.824725835254226	-0.8791348911666507	26.05983136876447	0	0.9399999999999999	0	35.41071608335252	-11.93307498268123	-10.00236280247133	50.44966033921002	0.8805126794320142	0	0	0	35.41071608335252	-11.93307498268123	-10.00236280247133	50.44966033921002	0.8805126794320142	0	0	0	-7.868426372655148	2.906008150963251	-3.436363503051241	40.95165526637497	-11.03701132355551	15.61378503011769	39.17960251337047	128.0419633517014	0	0	73.89869147219466	21.75004219620779	35.34157708354713	36.28923930718649	104.1155859431788	0	0
